<svg width="183" height="17" viewBox="0 0 183 17" fill="none" xmlns="http://www.w3.org/2000/svg">
<g opacity="0.87">
<path d="M0 8.94604C0 8.6699 0.223858 8.44604 0.5 8.44604H178.813V9.44604H0.500003C0.22386 9.44604 0 9.22219 0 8.94604Z" fill="#FED9CC"/>
<path d="M176.944 12.8856C177.089 13.0221 177.253 13.0365 177.435 12.9288L182.621 9.62305C182.874 9.46139 183 9.23572 183 8.94605C183 8.65639 182.874 8.43072 182.621 8.26905L177.435 4.9633C177.253 4.85564 177.089 4.87005 176.944 5.00655C176.799 5.14305 176.774 5.3088 176.869 5.5038L178.506 8.44605V9.44605L176.869 12.3883C176.774 12.5833 176.799 12.7491 176.944 12.8856Z" fill="#FED9CC"/>
</g>
</svg>
