<svg width="9" height="97" viewBox="0 0 9 97" fill="none" xmlns="http://www.w3.org/2000/svg">
<g opacity="0.87">
<path d="M4.34607 0.599999C4.34607 0.268628 4.6147 0 4.94607 0C5.27744 0 5.54607 0.268629 5.54607 0.6L5.54607 92.813H4.34607L4.34607 0.599999Z" fill="#FED9CC"/>
<path d="M1.00654 90.9443C0.870036 91.0891 0.855619 91.2526 0.963286 91.4348L4.26904 96.6213C4.4307 96.8738 4.65637 97 4.94604 97C5.2357 97 5.46137 96.8738 5.62303 96.6213L8.92879 91.4348C9.03645 91.2526 9.02204 91.0891 8.88554 90.9443C8.74904 90.7994 8.58329 90.7744 8.38829 90.8693L5.44604 92.5058L4.44604 92.5058L1.50379 90.8693C1.30879 90.7744 1.14304 90.7994 1.00654 90.9443Z" fill="#FED9CC"/>
</g>
</svg>
